<?xml version="1.0" encoding="utf-8"?>
<!-- Generator: Adobe Illustrator 24.2.1, SVG Export Plug-In . SVG Version: 6.00 Build 0)  -->
<svg version="1.1" id="Layer_1" xmlns="http://www.w3.org/2000/svg" xmlns:xlink="http://www.w3.org/1999/xlink" x="0px" y="0px"
	 viewBox="0 0 481.83 95.74" style="enable-background:new 0 0 481.83 95.74;" xml:space="preserve">
<style type="text/css">
	.st0{fill:url(#SVGID_1_);}
	.st1{fill:#CCCCCC;}
	.st2{fill:#FFD520;}
	.st3{fill:#E03A3E;}
	.st4{stroke:#000000;stroke-width:0;stroke-linecap:round;stroke-linejoin:round;}
	.st5{fill:#F6F6F6;}
	.st6{fill:#F6F6F6;stroke:#F6F6F6;stroke-width:0.2;}
</style>
<g>
	<g>
		<g>
			
				<radialGradient id="SVGID_1_" cx="723.7834" cy="620.319" r="37.6785" gradientTransform="matrix(0.8911 0 0 0.8911 -596.414 -505.6363)" gradientUnits="userSpaceOnUse">
				<stop  offset="0" style="stop-color:#FFFFFF"/>
				<stop  offset="0.5149" style="stop-color:#FDFDFD"/>
				<stop  offset="0.7003" style="stop-color:#F6F6F6"/>
				<stop  offset="0.8325" style="stop-color:#EBEBEB"/>
				<stop  offset="0.9387" style="stop-color:#DADADA"/>
				<stop  offset="1" style="stop-color:#CCCCCC"/>
			</radialGradient>
			<path class="st0" d="M48.55,80.7c-18.51,0-33.58-15.06-33.58-33.57c0-18.51,15.06-33.58,33.58-33.58
				c18.51,0,33.58,15.06,33.58,33.58C82.13,65.64,67.06,80.7,48.55,80.7z"/>
		</g>
		<g>
			<path class="st1" d="M48.55,80.7c-18.51,0-33.58-15.06-33.58-33.57c0-18.51,15.06-33.58,33.58-33.58
				c18.51,0,33.58,15.06,33.58,33.58C82.13,65.64,67.06,80.7,48.55,80.7z M48.55,14c-18.27,0-33.13,14.86-33.13,33.13
				c0,18.27,14.86,33.13,33.13,33.13c18.27,0,33.13-14.86,33.13-33.13C81.68,28.86,66.82,14,48.55,14z"/>
		</g>
		<path class="st2" d="M81.9,46.39c0,0.15-0.59,0.65-1.22,1.03c-0.02,0.01-0.03,0.02-0.05,0.03c-0.86,0.47-2.08,0.91-3.6,1.31
			c-1.55,0.41-3.48,0.78-5.59,1.1c-2.12,0.32-4.47,0.57-7.01,0.79c0,0,0,0.01,0,0c-3.25,0.29-5.29,0.41-7.88,0.54
			c-2.75,0.11-5.6,0.17-8.5,0.17c0,0.37,0,0.74,0,1.11c0,2.6,0.01,5.09,0.02,7.43c0.07,12.81,0.08,12.8,0.47,20.59
			c18.42,0,33.35-14.93,33.35-33.35C81.9,47.13,81.9,46.65,81.9,46.39z"/>
		<g>
			<path d="M48.06,52.47c0,2.6,0.01,5.09,0.02,7.43c5.35,5.07,5.35,5.07,7.57,7.3c0.59-4.23,0.92-9.29,0.91-14.89
				c0-0.37,0-0.74-0.01-1.11c-3.38,0.13-5.6,0.17-8.5,0.17C48.06,51.73,48.06,52.1,48.06,52.47z"/>
			<path d="M60.3,72.89c-1.17-1.9-2.23-3.14-4.65-5.68c-1.14,8.12-3.16,13.12-5.65,13.23c0.21-0.01,0.54-0.03,0.75-0.04
				c0.27-0.02,0.59-0.05,0.85-0.07C55.05,80.02,58.02,77.38,60.3,72.89z"/>
			<path d="M64.03,59.28c0.01-0.05-1.92,10.02-3.74,13.61c1.05,2.01,1.09,2.82,0.67,4.14c3.24-2.46,5.91-6.16,7.75-10.76
				C67.53,63.87,66.73,62.59,64.03,59.28z"/>
			<path d="M54.48,79.96c0.73-0.13,0.69-0.14,2.03-0.44l0.8-0.23c2.46-0.76,2.89-1.15,3.66-2.29c-2.2,1.66-4.55,2.67-7.17,3.08
				L54.48,79.96z"/>
			<path d="M69.31,71.78c4.81-5.45,7.75-13.14,7.74-21.92c0-0.37-0.01-0.74-0.02-1.1c-1.55,0.41-3.48,0.78-5.59,1.1
				c0.03,0.37,0.04,0.75,0.04,1.12c0.01,5.71-0.96,10.9-2.72,15.28C69.75,68.8,69.76,69.86,69.31,71.78z"/>
			<path d="M64.43,50.65c-3.25,0.29-5.29,0.41-7.88,0.54c4.57,4.75,5.54,5.87,7.47,8.08c0.27-2.36,0.42-4.86,0.41-7.48
				C64.44,51.42,64.44,51.02,64.43,50.65z"/>
		</g>
		<path d="M41.24,15.5c1.86-0.75,3.64-1.53,7.25-1.74l0,0C46.04,13.99,43.5,14.66,41.24,15.5"/>
		<g>
			<path class="st3" d="M70.88,49.85c-1.74-0.23-3.19-3.17-2.43-6.15c-2.44,1.69-5.19-1.78-4.79-4.99c0.21-1.7,1.33-3.21,3.27-2.51
				c-0.79-2.72-1.78-5.28-2.94-7.65c-1.72,0.22-3.61,0.4-5.62,0.54c1.78,2.69,0.03,5.2-2.45,4.8c-1.8-0.29-3.49-2.18-3.02-4.43
				c-1.46,1.01-4.46,0.61-4.74-2.58c-0.08,6.78-0.12,15.46-0.11,24.48c8.86,0.09,19.25-0.86,23.38-1.51c0,0,0,0.01,0,0
				C71.27,49.87,71.05,49.87,70.88,49.85z"/>
		</g>
		<g>
			<path class="st3" d="M27,56.55c2.48-0.96,5.6,3.33,4.5,6.19c-0.5,1.32-1.81,1.69-3.17,0.89c0.74,2.5,1.7,4.79,2.84,6.81
				c1.75,0.24,3.72,0.45,5.88,0.61c-1.73-2.13-0.34-3.87,1.97-3.76c1.98,0.1,4.6,1.75,4.04,4c1.78-0.81,4.8-0.15,5.16,2.18
				c-0.09-5-0.15-12.35-0.16-21.01c0-0.38,0-0.73,0-1.11c-2.81,0.01-5.67-0.1-8.51-0.22c-6.03-0.25-10.13-0.6-15.18-1.46
				c0,0.01,0-0.02,0,0C26.96,50.57,27.67,54.41,27,56.55z"/>
		</g>
		<path class="st3" d="M64.35,25.82L64.35,25.82L64.35,25.82c0.01,0,0.02,0,0.02,0l0.01,0c0,0,0.01,0,0.02,0
			c0.32-0.05,0.63-0.11,0.92-0.16c1.91-0.35,6.24-1.39,6.24-2.65c0,0,1.7,1.7,2.94,4.07c0.15,0.26,0.25,0.49,0.38,0.87
			c0.15,0.42,0.24,0.9,0.22,1.14c-0.06,0.72-0.51,0.73-0.99,0.52c-0.05-0.02-0.1-0.04-0.15-0.06c-1.71-0.77-2.27-2.34-2.61-2.99
			c-0.87,0.28-2.31,0.9-3.51,1.13c-0.14,0.03-0.39,0.09-0.54,0.11c1.41,2.32,2.76,5.1,3.72,7.79c1.68-1.73,4.31,1.48,4.44,4.57
			c0.07,1.82-0.74,3.43-2.4,2.85c1.33,2.46,0.9,6.07-1.62,6.86c-0.42-8.09-1.79-15.28-7.12-24.02h0l0,0"/>
		<path class="st3" d="M64.32,25.83L64.32,25.83L64.32,25.83L64.32,25.83L64.32,25.83c-4.25-6.49-7.6-8.85-11.91-10.55
			c-0.86-0.34-3.78-1.48-3.93-1.52l0.01,0.03l0,0c0.76,1.11,2.28,1.77,2.61,1.87c-0.09,0.4-0.02,1.21,1.38,2.23
			c0.22,0.16,0.43,0.28,0.63,0.38c2.17,1.13,2.65,0.25,2.75-0.1c0.01-0.01,0.03-0.02,0.04-0.03c0.66,0.49,1.95,1.52,3.37,3.14
			c0.82,0.98,1.59,1.84,2.18,2.7c-1.34,0.17-3.11,0.33-4.87,0.45c-0.1-2.13-1.63-3.19-2.6-3.55c-2.11-0.79-2.81,1.7-1.89,3.45
			c-1.67-0.9-3.65-0.1-3.93,2.54C54.77,26.84,59.3,26.55,64.32,25.83L64.32,25.83L64.32,25.83"/>
		<path class="st3" d="M64.73,19.79c-0.02-0.03-0.04-0.15-0.01-0.23c0.02-0.09,0.1-0.16,0.1-0.16s0.03-0.09,0.16-0.16
			c0.34-0.2,1.35-0.29,4.14,1.63c-5.78-4.55-12.01-6.42-17.29-6.94c-0.75-0.09-2.13-0.14-2.13-0.14c1.68,0.15,2.82,0.6,3.09,0.69
			c0.21,0.07,0.38,0.19,0.49,0.28c0.01,0,0.02,0,0.02,0c0.33,0.04,0.72,0.1,1.19,0.24c0.52,0.15,1.38,0.47,2.14,0.83
			c0.77,0.36,1.91,1.18,1.91,1.63c-0.18,0.11-0.23,0.14-0.75,0c1.97,1.41,4.8,4.06,6.47,6.01c1.15-0.22,2.86-0.46,3.65-0.73
			C67.86,22.79,65.3,20.87,64.73,19.79z"/>
		<path class="st3" d="M30.82,72.3c-2.86-0.52-4.5-0.95-5.6-1.51c-0.18-0.09-0.24-0.1-0.28-0.1c-0.02,0-1.63-1.65-3.04-3.48
			c-1.02-1.33-1.89-2.83-1.98-2.97c0.01,0.01,0.23,0,0.37,0.05c1.5,0.5,3.84,4.59,3.86,4.63c0.93,0.35,2.13,0.67,3.59,0.96
			c-1.37-2.06-2.52-4.38-3.4-6.91c-2.08,1.05-4.74-4.45-3.89-6.77c0.17-0.47,0.72-1.46,2.13-0.39c-1.06-2.45-0.77-6.12,1.79-6.12
			C24.43,57.8,25.54,64.79,30.82,72.3"/>
		<path class="st3" d="M48.17,73.95c-0.29,1.16-1.91,2.26-4.2,1.32c1.07,1.41,0.14,2.64-1.74,2.29c-1.47-0.27-3.21-1.44-3.34-2.62
			c-1.81-0.14-3.47-0.31-4.94-0.52c1.4,1.63,2.96,2.95,4.64,3.94c0.2-0.08,0.51-0.06,1.51,0.29c1.28,0.45,2.5,1.05,3.77,1.5
			c0,0-0.27-0.04-0.27-0.04c-0.97-0.15-1.2-0.2-1.75-0.31c-2.46-0.48-6.74-1.88-11.04-7.51h0h0l0,0c5.18,0.8,10.22,1.14,17.4,1.19
			C48.21,73.62,48.2,73.82,48.17,73.95"/>
		<path class="st2" d="M48.48,13.76c-17.88,0-32.94,14.6-33.28,32.72l0.01,0.03c0.01,0.05,0.18,0.39,0.88,0.83v0v0
			c0.7,0.44,1.74,0.91,3.11,1.26c1.7,0.44,3.47,0.79,5.13,1.07l0.03,0.01c5.05,0.86,9.15,1.21,15.18,1.46
			c2.84,0.12,5.69,0.22,8.51,0.22c0-1.7-0.01-11.39,0.07-20.75c0.01-1.21,0.03-2.47,0.04-3.74C48.23,20.79,48.36,14.58,48.48,13.76
			L48.48,13.76z"/>
		<path d="M64.46,76.45c-1.89,1.06-2.25,1.08-4.79,2.13c-0.7,0.29-1.36,0.46-2.09,0.66c4.5-1.21,10.65-6.25,11.73-7.47
			c-0.55,1.21-0.96,2.02-2.28,3.09C66.66,75.16,65.07,76.11,64.46,76.45z"/>
		<path d="M19.21,48.61c-1.39-0.34-2.41-0.82-3.11-1.26c0.37-12.07,7.08-22.78,16.84-28.64c-2.31,2.05-3.34,3.27-4.5,6.04
			C22.95,31.04,19.46,39.51,19.21,48.61"/>
		<path d="M32.97,18.69c2.45-1.76,3.84-3.05,7.72-3.98c2.72-0.65,5.1-0.94,7.8-0.94l0,0C42.86,14.01,37.58,15.93,32.97,18.69"/>
		<path d="M31.19,50.61c-2.44-0.24-4.74-0.56-6.81-0.92c0.14-6.05,1.4-11.85,3.59-16.98c0.85,3.37,1.57,5.19,3.95,9.18
			C31.48,44.72,31.23,47.64,31.19,50.61"/>
		<path d="M48.17,26.88c-0.04,3.67-0.06,7.45-0.07,10.36c-0.02,2.89-0.03,4.98-0.03,5.38c-3.28-3.44-5.04-5.37-7.44-8.42
			c1.61-10.37,4.52-18.56,7.85-20.44l0,0l0,0C48.36,14.75,48.24,20.64,48.17,26.88z"/>
		<g>
			<path d="M36.46,26.48c-2.1,4.42-3.66,9.72-4.53,15.41c2.04,3.03,3.3,4.8,7.36,9.25c0.04-5.96,0.53-11.75,1.34-16.95
				C38.19,30.86,37.41,29.28,36.46,26.48z"/>
		</g>
		<path class="st4" d="M80.62,47.45c0.01,0.37,0.02,0.74,0.02,1.1c0.02,11.79-5.74,21.6-14.75,27.03l-0.24,0.18
			c4.23-2.6,9.58-7,12.99-14.27c3.65-7.17,3.25-15.1,3.25-15.1C81.72,46.71,81.18,47.12,80.62,47.45z"/>
		<g>
			<path d="M41.24,15.5c-4.87,1.91-9.25,5.17-12.79,9.24c-0.97,3.03-0.97,4.73-0.48,7.97c2.16-5.06,5.18-9.44,8.76-12.71
				C37.82,18.09,38.51,16.95,41.24,15.5z"/>
		</g>
		<path d="M36.45,26.51c-0.6-2.72-0.65-4.11,0.26-6.48c3.48-3.21,7.5-5.59,11.77-6.26C43.8,15.02,39.56,19.93,36.45,26.51"/>
	</g>
	<g>
		<g>
			<path class="st5" d="M11.44,25.34l-2.74-1.36c-0.62-0.31-0.73-0.63-0.43-1.26l0.04-0.09l-0.37-0.18l-1.27,2.56l0.36,0.18
				l0.05-0.08c0.28-0.5,0.45-0.66,0.7-0.66c0.18,0,0.43,0.08,0.85,0.29L11,25.92c1.74,0.87,1.51,2.26,1.01,3.27
				c-0.49,0.98-1.18,1.49-2.02,1.49c-0.38,0-0.78-0.1-1.19-0.31l-2.82-1.4c-0.5-0.25-0.57-0.48-0.3-1.04l0.09-0.18l-0.37-0.18
				l-1.38,2.78l0.37,0.18l0.04-0.09c0.24-0.46,0.38-0.61,0.58-0.61c0.12,0,0.27,0.05,0.48,0.16l2.96,1.47
				c0.45,0.22,0.9,0.33,1.35,0.33c1.14,0,2.13-0.72,2.79-2.04C13.73,27.49,12.75,25.99,11.44,25.34z"/>
			<path class="st5" d="M14.94,14.57c-0.01-0.16,0.11-0.38,0.42-0.74l0.06-0.08l-0.32-0.26l-1.83,2.17l0.31,0.27l0.07-0.07
				c0.36-0.41,0.56-0.56,0.73-0.56c0.13,0,0.27,0.08,0.48,0.25l3.26,2.75l-7.48,0.48l-1.23,1.46l0.31,0.27l0.06-0.07
				c0.24-0.26,0.47-0.42,0.74-0.5l4.22,3.55c0.32,0.27,0.42,0.53-0.03,1.06l-0.09,0.11l0.31,0.27l1.82-2.16l-0.32-0.26l-0.06,0.07
				c-0.35,0.41-0.55,0.56-0.74,0.56l0,0c-0.15,0-0.33-0.1-0.61-0.33l-3.52-2.97l8.27-0.52l0.28-0.33l-4.9-4.13
				C15.01,14.75,14.95,14.67,14.94,14.57z"/>
			<path class="st5" d="M23.63,15.35c-0.27,0.22-0.46,0.32-0.62,0.32c-0.17,0-0.33-0.11-0.55-0.38l-3.06-3.69
				c-0.45-0.54-0.36-0.76,0.14-1.18l0.08-0.06l-0.26-0.32l-2.27,1.88l0.26,0.31l0.07-0.05c0.24-0.18,0.41-0.26,0.55-0.26
				c0.16,0,0.3,0.1,0.49,0.33l3.08,3.71c0.46,0.55,0.45,0.72-0.02,1.15l-0.07,0.06l0.26,0.31l2.27-1.88l-0.26-0.32L23.63,15.35z"/>
			<path class="st5" d="M28.01,4.98l0.08-0.05l-0.21-0.35L25.46,6l0.2,0.36l0.09-0.05C26.1,6.1,26.35,6,26.51,6
				c0.11,0,0.19,0.05,0.25,0.15c0.07,0.11,0.12,0.32,0.18,0.67l0.78,4.69l-4.12-3.19c-0.16-0.12-0.23-0.22-0.22-0.33
				c0.01-0.18,0.25-0.42,0.75-0.73l0.08-0.05l-0.21-0.35l-2.85,1.67l0.21,0.35l0.08-0.05c0.24-0.14,0.4-0.2,0.54-0.2
				c0.2,0,0.4,0.13,0.75,0.4l5.27,4.08l0.61-0.35l-1.05-6.45C27.43,5.59,27.55,5.25,28.01,4.98z"/>
			<path class="st5" d="M37.22,6.85l0,0.07c0.05,1.02-0.09,1.31-0.76,1.54l-1.65,0.57c-0.13,0.04-0.22,0.07-0.29,0.07
				c-0.14,0-0.25-0.07-0.36-0.39l-0.76-2.19l1.72-0.59c0.15-0.05,0.24-0.07,0.32-0.07c0.17,0,0.34,0.1,0.58,0.61l0.04,0.08
				l0.38-0.13L35.67,4.2l-0.38,0.13l0.02,0.09c0.16,0.63,0.03,0.8-0.28,0.9l-1.82,0.63L32.37,3.5l2.16-0.75
				c0.08-0.03,0.16-0.04,0.22-0.04c0.18,0,0.45,0.09,0.83,0.83l0.04,0.08L36,3.48l-0.67-1.64l-5.32,1.83l0.13,0.39l0.33-0.11
				c0.19-0.06,0.34-0.1,0.46-0.1c0.27,0,0.41,0.15,0.57,0.6l1.56,4.52c0.11,0.33,0.13,0.52,0.06,0.66c-0.08,0.16-0.3,0.3-0.7,0.44
				l-0.39,0.14l0.14,0.39l5.86-2.02l-0.42-1.84L37.22,6.85z"/>
			<path class="st5" d="M48.12,6.77c-0.79,0.05-1.48-0.22-2.28-0.85l-1-0.78c-0.5-0.39-0.86-0.67-1.27-0.93
				c0.82-0.42,1.27-1.18,1.17-2.02c-0.15-1.31-1.41-1.96-3.36-1.72c-0.73,0.08-0.96,0.12-1.42,0.2c-0.14,0.02-0.3,0.05-0.46,0.08
				c-0.37,0.07-0.76,0.13-0.94,0.15l-0.1,0.01l0.04,0.41l0.35-0.04c0.09-0.01,0.16-0.02,0.24-0.02c0.35,0,0.53,0.11,0.6,0.73
				l0.56,4.73c0.08,0.71-0.1,0.86-0.7,0.93l-0.29,0.04l0.05,0.4l3.38-0.4l-0.05-0.4l-0.35,0.04c-0.1,0.01-0.19,0.02-0.26,0.02
				c-0.36,0-0.56-0.11-0.63-0.67l-0.21-1.79c0.14-0.01,0.28-0.02,0.48-0.04c0.29-0.03,0.47-0.06,0.73-0.11h0
				c0.21,0.11,0.62,0.36,1.23,0.84l0.83,0.66c1.13,0.89,1.71,1.27,3.71,0.94l0.09-0.01l-0.04-0.39L48.12,6.77z M43.49,2.4
				c0.07,0.56-0.03,1.01-0.29,1.34c-0.29,0.36-0.78,0.59-1.47,0.67l-0.15,0.02c-0.16,0.02-0.28,0.04-0.45,0.04l-0.42-3.51
				c0.16-0.03,0.28-0.05,0.46-0.07C42.61,0.72,43.35,1.2,43.49,2.4z"/>
			<path class="st5" d="M52.33,3.16c-0.78-0.57-1.51-1.11-1.46-1.8c0.04-0.57,0.55-0.93,1.24-0.87c0.75,0.06,1.39,0.61,1.63,1.4
				l0.02,0.06l0.37,0.03l-0.1-1.64l-0.31-0.03L53.7,0.35c-0.06,0.07-0.08,0.07-0.11,0.07h-0.02c-0.14-0.01-0.25-0.06-0.39-0.12
				c-0.22-0.1-0.53-0.24-1.12-0.28c-1.21-0.09-2.17,0.6-2.24,1.57c-0.08,1.09,0.88,1.81,1.81,2.5c0.8,0.6,1.55,1.16,1.5,1.88
				c-0.07,0.83-0.86,1.17-1.56,1.12c-0.88-0.07-1.55-0.72-1.69-1.66l-0.01-0.08l-0.4-0.03l0.11,1.93l0.33,0.02l0.03-0.04
				c0.02-0.03,0.07-0.07,0.16-0.07h0c0.04,0,0.18,0.05,0.31,0.1c0.32,0.12,0.81,0.29,1.23,0.33c0.09,0.01,0.17,0.01,0.25,0.01h0
				c1.27,0,2.22-0.76,2.3-1.85C54.27,4.59,53.24,3.83,52.33,3.16z"/>
			<path class="st5" d="M57.12,1.22l0.09,0.02c0.58,0.16,0.7,0.34,0.59,0.86l-1.03,4.71c-0.13,0.62-0.27,0.73-0.59,0.73
				c-0.09,0-0.2-0.01-0.34-0.03L55.75,7.5l-0.09,0.4l2.88,0.62l0.09-0.4l-0.1-0.02c-0.36-0.08-0.56-0.18-0.65-0.32
				c-0.08-0.13-0.09-0.32-0.02-0.65l1.02-4.69c0.12-0.57,0.3-0.67,0.59-0.67c0.11,0,0.25,0.02,0.43,0.06L60,1.85l0.09-0.4L57.2,0.82
				L57.12,1.22z"/>
			<path class="st5" d="M68.78,4.39c-0.01,0.01-0.02,0.03-0.08,0.03c-0.05,0-0.11-0.02-0.19-0.05l-5.06-2
				c-0.06-0.03-0.12-0.06-0.17-0.1c-0.03-0.03-0.03-0.06-0.03-0.07l0.02-0.08l-0.36-0.14l-0.94,1.81l0.37,0.15l0.04-0.07
				c0.38-0.63,0.63-0.88,0.88-0.88c0.07,0,0.14,0.02,0.23,0.05l1.74,0.69l-2.03,5.11c-0.16,0.42-0.33,0.5-0.52,0.5
				c-0.12,0-0.28-0.04-0.49-0.12l-0.48-0.18l-0.15,0.38l3.5,1.39l0.15-0.38l-0.48-0.19c-0.31-0.12-0.48-0.24-0.54-0.39
				c-0.06-0.13-0.04-0.31,0.07-0.58l2.03-5.11l1.74,0.69c0.34,0.14,0.46,0.37,0.25,1.36l-0.02,0.08l0.37,0.14l0.56-1.96l-0.36-0.14
				L68.78,4.39z"/>
			<path class="st5" d="M75.53,8.99l0.08,0.05c0.3,0.2,0.45,0.36,0.44,0.47c-0.01,0.11-0.14,0.22-0.4,0.35l-2.69,1.3L73.01,8
				c0-0.47,0.11-0.47,0.17-0.47c0.12,0,0.31,0.09,0.59,0.27l0.08,0.05l0.23-0.34l-2.67-1.78l-0.23,0.34l0.08,0.05
				c0.55,0.39,0.69,0.63,0.66,1.65l-0.07,3.71l-0.87,1.3c-0.31,0.47-0.56,0.49-1.07,0.15l-0.26-0.18l-0.22,0.34l2.74,1.84l0.23-0.34
				l-0.2-0.14c-0.27-0.18-0.41-0.34-0.45-0.5c-0.03-0.15,0.03-0.32,0.19-0.56l0.92-1.39l3.31-1.59c0.31-0.15,0.54-0.21,0.77-0.21
				c0.25,0,0.51,0.08,0.81,0.25l0.08,0.05l0.23-0.34l-2.29-1.53L75.53,8.99z"/>
			<path class="st5" d="M86.44,18.71c-0.87-1.15-2.1-1.8-3.36-1.8c-0.83,0-1.65,0.29-2.35,0.82c-1.65,1.26-1.8,3.64-0.36,5.53
				c0.82,1.07,2.02,1.69,3.29,1.69h0c0.85,0,1.68-0.29,2.39-0.82C87.65,22.91,87.82,20.53,86.44,18.71z M86.49,20.97
				c-0.12,0.9-0.65,1.74-1.5,2.39c-0.67,0.51-1.43,0.79-2.15,0.79c-0.78,0-1.45-0.34-1.94-0.98c-1.09-1.43-0.72-3.43,0.87-4.64
				c0.62-0.47,1.41-0.75,2.13-0.75c0.8,0,1.48,0.35,1.98,1C86.38,19.43,86.59,20.19,86.49,20.97z"/>
			<path class="st5" d="M90.22,24.73l-0.37,0.17l0.04,0.09c0.29,0.63,0.11,0.78-0.55,1.09l-4,1.91c-0.36,0.17-0.57,0.25-0.72,0.25
				c-0.19,0-0.31-0.11-0.51-0.47l-0.05-0.08l-0.36,0.17l1.27,2.66l0.38-0.17l-0.04-0.09c-0.17-0.36-0.22-0.59-0.17-0.74
				c0.05-0.14,0.18-0.25,0.48-0.39l2.15-1.03l0.86,1.8c0.19,0.41,0.19,0.67-0.38,0.97l-0.08,0.04l0.17,0.35l1.97-0.94l-0.16-0.34
				L90.04,30c-0.41,0.16-0.65,0.1-0.81-0.23l-0.92-1.93l2.22-1.06l0.89,1.85c0.26,0.56,0.17,0.84-0.39,1.12l-0.09,0.04l0.17,0.35
				l1.38-0.66L90.22,24.73z"/>
		</g>
		<path class="st5" d="M9.14,75.42l4.07-7.51l-0.02-0.02l-5.5,3.51c-0.62,0.4-0.43,0.94-0.07,1.48L7.4,73.03l-1.77-2.44l0.23-0.16
			c0.62,0.85,0.88,0.82,1.99,0.11l4.76-3.02c0.81-0.51,1-0.69,0.52-1.45l0.21-0.15l1.28,1.77l-3.85,7.1l7.94-1.47l1.25,1.72
			l-0.21,0.16c-0.46-0.54-0.64-0.76-1.02-0.44l-5.03,4.22c-1.02,0.85-0.96,0.95-0.34,1.8l-0.22,0.16l-2.18-3.01l0.22-0.16
			c0.4,0.55,0.94,0.98,1.53,0.48l5-4.15l-0.01-0.02l-8.35,1.62L9.14,75.42z"/>
		<path class="st5" d="M23.46,83.24l-2.02-1.48l2.99-1.99L23.46,83.24z M23.28,83.9l-0.78,2.7c-0.04,0.15-0.08,0.39-0.22,0.57
			c-0.24,0.33-0.54,0.22-1.2-0.27l-0.3-0.22l-0.16,0.22l3.2,2.36l0.16-0.22c-0.58-0.42-0.74-0.72-0.52-1.51l2.32-8.26l-1.01-0.74
			l-0.08,0.33l-6.38,4.23c-1.11,0.74-1.34,0.77-2.1,0.23l-0.16,0.22l2.69,1.97l0.16-0.22l-0.19-0.14c-0.64-0.47-0.86-0.81-0.63-1.12
			c0.12-0.16,0.53-0.4,0.78-0.56l2.02-1.33L23.28,83.9z"/>
		<path class="st5" d="M32.56,83.7c0.25,0.06,0.43,0.12,0.69,0.21c2.1,0.75,2.33,1.93,1.87,3.2c-0.58,1.64-1.8,1.92-3.31,1.39
			c-0.32-0.11-0.52-0.17-0.84-0.33L32.56,83.7z M30.88,88.43c0.21,0.09,0.39,0.17,0.69,0.27c0.37,0.13,0.59,0.19,0.94,0.3
			c0.25,0.34,0.59,0.9,0.97,1.71l0.58,1.22c0.78,1.64,1.21,2.38,3.63,3.12l0.09-0.25c-1.03-0.44-1.68-1.24-2.2-2.33l-0.7-1.46
			c-0.41-0.86-0.68-1.39-1.05-1.97c1.23,0.07,2.23-0.54,2.6-1.56c0.49-1.39-0.27-2.83-2.79-3.72c-0.89-0.31-1.16-0.4-1.73-0.57
			c-0.57-0.17-1.42-0.41-1.75-0.53l-0.09,0.26l0.3,0.1c0.79,0.28,0.94,0.61,0.64,1.45l-2.03,5.74c-0.33,0.91-0.69,1.03-1.49,0.74
			l-0.23-0.08l-0.09,0.26l3.86,1.37l0.09-0.26l-0.31-0.11c-0.76-0.27-1.02-0.59-0.73-1.41L30.88,88.43z"/>
		<path class="st5" d="M47.29,88.12c0.53-0.75,0.28-1.02-0.65-1.1l0.02-0.27l3.26,0.28L49.9,87.3c-0.98-0.01-1.44,0.34-1.9,0.98
			l-2.74,3.85l-0.19,2.16c-0.07,0.76,0.18,1.09,1.06,1.17l0.19,0.02l-0.02,0.27l-3.96-0.34l0.02-0.27l0.27,0.02
			c0.9,0.07,1.19-0.23,1.24-0.94l0.17-2.03l-2.22-4.23c-0.61-1.17-0.93-1.4-1.86-1.51L40,86.18l3.83,0.33l-0.03,0.27
			c-1.12-0.1-1.22,0.17-0.84,0.87l2,3.75L47.29,88.12z"/>
		<path class="st5" d="M59.31,94.61l-6.37,1.08l-0.04-0.27l0.47-0.08c0.66-0.11,0.86-0.37,0.74-1.09l-1.07-6.32
			c-0.13-0.75-0.41-1.03-1.31-0.88l-0.2,0.03l-0.05-0.27l4.21-0.71l0.05,0.27l-0.53,0.09c-0.93,0.16-1.15,0.3-1,1.18l1.11,6.57
			c0.06,0.38,0.25,0.5,0.66,0.43l2.09-0.35c0.84-0.15,1.04-0.51,1.73-1.91l0.26-0.05L59.31,94.61z"/>
		<path class="st5" d="M66.21,87.39l-2.31,0.97l-0.17-3.58L66.21,87.39z M66.68,87.88l1.91,2.05c0.11,0.11,0.29,0.27,0.38,0.49
			c0.15,0.37-0.09,0.57-0.85,0.89l-0.35,0.14l0.11,0.25l3.67-1.53l-0.1-0.26c-0.67,0.28-1,0.26-1.57-0.33l-5.88-6.24l-1.16,0.48
			l0.24,0.24l0.34,7.64c0.05,1.34-0.03,1.55-0.89,1.93l0.1,0.25l3.08-1.29l-0.11-0.25l-0.21,0.09c-0.73,0.3-1.14,0.32-1.29-0.04
			c-0.08-0.19-0.07-0.66-0.08-0.95l-0.1-2.42L66.68,87.88z"/>
		<path class="st5" d="M82.33,82.28l-10.77-1.27l3.95,4.78c0.66,0.8,0.98,0.82,1.93,0.04l0.17,0.21l-2.59,2.14l-0.17-0.21l0.04-0.04
			c0.69-0.57,0.72-0.99,0.3-1.5l-4.53-5.48c-0.41,0.03-0.77,0.18-1.17,0.49l-0.18-0.21l1.75-1.45l9.78,1.13l-3.67-4.44
			c-0.56-0.68-0.86-0.63-1.78,0.08l-0.18-0.21l2.61-2.15l0.18,0.21c-0.84,0.69-0.89,0.98-0.54,1.42l5.14,6.22L82.33,82.28z"/>
		<path class="st5" d="M80.21,71.15c0.08-0.16,0.26-0.5,0.58-1c1.1-1.7,2.08-2.29,3-2.48c1.18-0.25,2.34,0.13,3.24,0.72
			c1.25,0.81,1.82,1.97,1.97,2.7c0.27,1.24,0.06,2.07-0.99,3.69c-0.62,0.96-0.81,0.89-1.31,0.56L80.21,71.15z M85.83,76.21
			c0.7,0.46,0.69,0.87,0.27,1.53l-0.13,0.21l0.23,0.15l2.51-3.89c1.99-3.07,0.71-5.91-1.13-7.1c-2.01-1.29-4.56-0.92-6.63,2.28
			c-0.41,0.63-0.88,1.38-1.28,2.07c-0.41,0.68-0.77,1.29-1.03,1.76l0.23,0.15l0.15-0.24c0.47-0.72,0.79-0.8,1.58-0.29L85.83,76.21z"
			/>
		<path class="st5" d="M2.13,44.68v6.19c0,0.32,0.07,0.41,0.4,0.41h0.6v0.2H0.44v-0.2h0.58c0.34,0,0.41-0.1,0.41-0.42v-5.33
			c-0.34,0.3-0.94,0.69-1.34,0.88L0,46.26c0.62-0.42,1.51-1.22,1.76-1.58H2.13z"/>
		<path class="st5" d="M8.31,49.96c0,0.84-0.61,1.48-1.42,1.48c-0.82,0-1.42-0.67-1.42-1.58c0-0.7,0.36-1.23,1.09-1.62
			C7.82,48.8,8.31,49.25,8.31,49.96z M8.78,46.22c0-0.85-0.86-1.54-1.93-1.54c-1.06,0-1.94,0.79-1.94,1.73
			c0,0.73,0.46,1.27,1.46,1.72c-1.05,0.42-1.55,1-1.55,1.75c0,0.97,0.91,1.75,2.07,1.75c1.19,0,2.11-0.85,2.11-1.96
			c0-0.82-0.48-1.39-1.61-1.89C8.33,47.4,8.78,46.9,8.78,46.22z M8.13,46.21c0,0.61-0.3,1.1-0.89,1.47c-1.38-0.59-1.7-1.01-1.7-1.6
			c0-0.67,0.57-1.2,1.31-1.2C7.59,44.88,8.13,45.44,8.13,46.21z"/>
		<path class="st5" d="M88.17,45.44h2.53c0.19,0,0.26-0.04,0.31-0.14h0.2l-0.12,0.82h-2.7l-0.08,1.92c0.33-0.18,0.71-0.27,1.15-0.27
			c1.2,0,2.19,1,2.19,2.2c0,1.3-1.08,2.28-2.51,2.28c-0.85,0-1.56-0.3-1.56-0.67c0-0.18,0.16-0.33,0.35-0.33
			c0.58,0,0.78,0.75,1.45,0.75c0.79,0,1.46-0.83,1.46-1.8c0-0.99-0.67-1.72-1.59-1.72c-0.39,0-0.81,0.16-1.13,0.43l-0.11-0.08
			L88.17,45.44z"/>
		<path class="st5" d="M96.3,50.2c0,1.21-0.51,1.89-1.26,1.89c-0.68,0-1.46-0.59-1.46-2.39c0-0.36,0.02-0.51,0.05-0.66
			c0.65-0.52,1.13-0.64,1.41-0.64C95.76,48.39,96.3,49.06,96.3,50.2z M96.36,45.31c-2.23,0.63-3.58,2.2-3.58,4.17
			c0,1.64,0.92,2.78,2.24,2.78c1.14,0,2.08-0.98,2.08-2.16c0-1.09-0.84-1.97-1.89-1.97c-0.52,0-0.94,0.17-1.52,0.62
			c0.23-1.56,1.12-2.61,2.79-3.29L96.36,45.31z"/>
	</g>
</g>
<g>
	<path class="st5" d="M119.69,40.13c0.86,0.06,1.57,0.12,2.75,0.12c1.45,0,2.31-0.06,3.65-0.12c1.29,0.91,3.17,2.54,5.53,5.03
		l3.56,3.73c4.8,5.01,7.22,7.16,16.64,6.71v-1.02c-4.15-0.29-7.43-2.36-10.6-5.7l-4.25-4.45c-2.54-2.65-4.16-4.23-6.15-5.89
		c4.41-1.36,7.17-4.93,7.17-9.18c0-5.78-4.48-10.11-14.42-10.11c-3.49,0-4.57,0.06-6.79,0.18c-2.21,0.12-5.49,0.34-6.79,0.34v1.09
		h1.18c3.12,0,4.04,1.03,4.04,4.54v23.83c0,3.79-1.13,4.68-4.3,4.68h-0.92V55h15.24v-1.09H124c-3.01,0-4.3-0.85-4.3-4.24V40.13z
		 M119.69,20.45c0.97-0.11,1.67-0.11,2.69-0.11c8.27,0,10.53,4.08,10.53,9.36c0,6.8-3.92,9.46-9.88,9.46
		c-1.24,0-2.04,0.06-3.34-0.11V20.45z"/>
	<path class="st5" d="M167.98,37.51c0-6.26-5.33-10.7-11.55-10.7c-7.01,0-12.04,4.86-12.04,11.78c0,6.5,5.42,10.84,11.87,10.84
		C162.65,49.42,167.98,44.53,167.98,37.51 M164.89,38.65c0,4.94-2.57,9.94-7.93,9.94c-5.3,0-9.48-4.59-9.48-11.08
		c0-4.18,2.3-9.88,8.1-9.88C161,27.63,164.89,32.19,164.89,38.65"/>
	<path class="st5" d="M178.44,39.25h4.64c5.03,0,7.57,3.56,7.57,7.02c0,3.51-1.64,7.2-7.3,7.2c-3.62,0-4.9-1.22-4.9-4.64V39.25z
		 M174.89,50.13c0,2.83-0.69,3.68-4.2,3.68h-0.98v0.86h15.69c6.91,0,9.27-5,9.27-8.55c0-3.5-2.36-6.24-6.39-7.51v-0.09
		c2.85-0.54,4.85-2.94,4.85-5.51c0-2.16-0.85-3.7-2.6-5c-1.53-1.18-4.83-1.76-8.61-1.76c-0.82,0-4.08,0.04-6.43,0.14
		c-1.24,0.04-4.19,0.21-5.4,0.26v0.8h1.5c2.99,0,3.3,1.37,3.3,3.96V50.13z M178.44,27.25c1.07-0.05,2.83-0.13,3.78-0.13
		c5.28,0,7.09,2.89,7.09,6.05c0,3.52-2.06,5.23-6.19,5.23h-4.68V27.25z"/>
	<path class="st5" d="M215.19,44.51h-0.8c-0.34-3.21-1.16-3.58-2.91-3.58h-7.22v9.65c0,2.08,0.72,2.49,2.31,2.49h6.58
		c2.99,0,3.88-1.22,4.95-5.13h0.77l-0.68,6.74h-22.7v-0.86h1.2c3.42,0,4.02-1,4.02-3.7V31.11c0-2.51-0.55-3.59-3.42-3.59h-0.94
		v-0.87h20.52l0.34,6.24h-0.77c-0.56-3.82-1.62-4.63-3.16-4.63h-9.01v11.07h7.64c1.54,0,2.27-0.77,2.49-3.37h0.8V44.51z"/>
	<path class="st5" d="M229.34,42.85c0.68,0.05,1.24,0.1,2.18,0.1c1.16,0,1.84-0.05,2.91-0.1c1.03,0.72,2.53,2.03,4.41,4.01
		l2.83,2.97c3.81,3.98,5.74,5.69,13.23,5.33v-0.8c-3.29-0.23-5.9-1.88-8.43-4.54l-3.39-3.55c-2.01-2.11-3.29-3.36-4.88-4.68
		c3.51-1.08,5.69-3.92,5.69-7.3c0-4.6-3.55-8.03-11.47-8.03c-2.78,0-3.63,0.04-5.4,0.14c-1.75,0.09-4.36,0.26-5.39,0.26v0.86h0.94
		c2.49,0,3.21,0.81,3.21,3.61v18.96c0,3.01-0.9,3.72-3.42,3.72h-0.72v0.86h12.11v-0.86h-0.99c-2.4,0-3.42-0.68-3.42-3.36V42.85z
		 M229.34,27.2c0.77-0.09,1.33-0.09,2.14-0.09c6.59,0,8.39,3.24,8.39,7.44c0,5.41-3.12,7.53-7.87,7.53c-0.99,0-1.63,0.05-2.65-0.08
		V27.2z"/>
	<path class="st5" d="M263.54,50.52c0,2.44,0.77,3.29,3.39,3.29h1.58v0.86h-13.49v-0.86h1.59c2.6,0,3.38-0.85,3.38-3.29V28.26h-7.45
		c-1.71,0-2.48,1.04-3.12,5h-0.77l0.69-7.28h0.81c0.04,0.26,0.22,0.45,0.47,0.54c0.26,0.08,0.56,0.13,0.86,0.13h20.59
		c0.61,0,1.25-0.13,1.33-0.67h0.82l0.68,7.28h-0.77c-0.64-3.96-1.41-5-3.13-5h-7.45V50.52z"/>
	<path class="st5" d="M295.55,38.07v10.74c0,3.68,0.69,4.98,4.29,4.98H300v1.09h-13.52v-1.09h0.33c3.18,0,4.25-0.91,4.25-4.13V24.75
		c0-2.94-0.92-3.79-3.88-4.01v-1.1H300v1.1c-3.81,0-4.45,1.08-4.45,5.43v9.85h21.03V24.87c0-3-0.91-4.13-4.24-4.13h-1.01v-1.1h13.83
		v1.1c-3.22,0.11-4.08,1.13-4.08,4.64v23.5c0,4.01,1.07,4.92,4.29,4.92h0.54v1.09h-15.23v-1.09h1.66c3.5,0,4.24-1.3,4.24-4.24V38.07
		H295.55z"/>
	<path class="st5" d="M336.58,53.11c0,1.35-0.99,2.11-2.18,2.11c-1.24,0-2.18-0.85-2.18-2.11c0-1.26,0.94-2.11,2.18-2.11
		C335.59,51,336.58,51.81,336.58,53.11"/>
	<path class="st5" d="M346.89,46.32c1.13,5.04,4.9,7.98,9.09,7.98c3.6,0,7.41-2.21,7.41-6.68c0-8.15-17.26-10.64-17.26-20.55
		c0-4.7,4.09-8.18,9.57-8.18c4.51,0,5.42,1.39,7.31,1.39c0.43,0,0.64-0.12,0.97-0.57h0.86l0.93,7.2h-0.93
		c-1.5-4.08-4.94-6.68-8.65-6.68c-3.54,0-6.02,2.15-6.02,5.32c0,8.04,17.26,10.19,17.26,20.6c0,5.55-4.69,9.69-10.97,9.69
		c-2.96,0-6.72-1.53-7.48-1.53c-0.48,0-0.87,0.28-1.08,0.66H347l-1.13-8.64H346.89z"/>
	<path class="st5" d="M387.04,54.68l-10.92-24.06h-0.08l-1.16,20.31c-0.13,2.3,1.5,2.8,3.42,2.89v0.86h-8.89v-0.86
		c3.11,0,3.5-0.72,3.72-4.82l1.03-17.56c0.17-2.98,0.09-3.79-2.57-3.97v-0.8h6.46l10.32,22.74l10.27-22.74h6.29v0.8
		c-2.1,0.18-2.9,0.23-2.83,1.76l1.37,20.45c0.26,4.15,0.6,4.15,3.72,4.15v0.86h-11v-0.86c2.01,0,3.98-0.59,3.81-2.98l-1.24-20.22
		h-0.08l-10.66,24.06H387.04z"/>
	<path class="st5" d="M420.34,54.68h-10.41v-0.86c2.65-0.13,3.22-0.85,3.22-3.87V30.76c0-2.43-0.82-3.11-3.22-3.24v-0.86h10.41v0.86
		c-2.7,0-3.64,0.63-3.64,3.65v19.1c0,2.66,0.69,3.55,3.64,3.55V54.68z"/>
	<path class="st5" d="M437.46,50.52c0,2.44,0.76,3.29,3.38,3.29h1.57v0.86h-13.48v-0.86h1.58c2.62,0,3.38-0.85,3.38-3.29V28.26
		h-7.45c-1.71,0-2.48,1.04-3.12,5h-0.77l0.69-7.28h0.81c0.04,0.26,0.21,0.45,0.48,0.54c0.25,0.08,0.55,0.13,0.85,0.13h20.59
		c0.6,0,1.25-0.13,1.33-0.67h0.81l0.69,7.28h-0.77c-0.63-3.96-1.42-5-3.12-5h-7.45V50.52z"/>
	<path class="st5" d="M457.6,41.27v8.58c0,2.93,0.56,3.97,3.43,3.97h0.13v0.86h-10.75v-0.86h0.25c2.52,0,3.38-0.72,3.38-3.3V30.71
		c0-2.34-0.73-3.01-3.08-3.19v-0.86h10.2v0.86c-3.05,0-3.56,0.85-3.56,4.32v7.82h16.83V30.8c0-2.38-0.73-3.28-3.39-3.28h-0.82v-0.86
		h11.01v0.86c-2.57,0.09-3.25,0.9-3.25,3.69v18.68c0,3.21,0.86,3.93,3.43,3.93h0.43v0.86h-12.13v-0.86h1.33
		c2.79,0,3.39-1.04,3.39-3.38v-9.17H457.6z"/>
</g>
<g>
	<path class="st6" d="M116.69,80.49c0.64,2.71,2.77,4.29,5.15,4.29c2.04,0,4.2-1.19,4.2-3.59c0-4.39-9.77-5.73-9.77-11.05
		c0-2.53,2.31-4.42,5.42-4.42c2.56,0,3.07,0.76,4.14,0.76c0.24,0,0.36-0.06,0.55-0.3h0.49l0.52,3.87h-0.52
		c-0.85-2.19-2.8-3.59-4.9-3.59c-2.01,0-3.41,1.16-3.41,2.86c0,4.32,9.77,5.48,9.77,11.08c0,2.99-2.65,5.21-6.21,5.21
		c-1.67,0-3.81-0.82-4.23-0.82c-0.27,0-0.49,0.15-0.61,0.33h-0.52l-0.64-4.63H116.69z"/>
	<path class="st6" d="M151.51,71.17c-1-2.83-3.62-4.69-6.94-4.69c-5.08,0-8.25,3.68-8.25,8.8c0,5.51,3.96,9.56,8.59,9.56
		c2.41,0,5.36-0.82,7.43-4.5h0.58c-0.4,1.37-1.22,3.26-1.95,4.45c-1.95-0.27-3.29,0.82-6.88,0.82c-6.18,0-10.63-4.08-10.63-9.71
		c0-5.91,4.57-10.17,10.93-10.17c3.84,0,5.48,1.22,6.42,1.22c0.33,0,0.49-0.09,0.55-0.18h0.46l0.27,4.42H151.51z"/>
	<path class="st6" d="M162.34,76.08v5.78c0,1.98,0.4,2.68,2.44,2.68h0.09v0.58h-7.64v-0.58h0.18c1.8,0,2.41-0.49,2.41-2.22v-13.4
		c0-1.58-0.52-2.04-2.19-2.16v-0.58h7.25v0.58c-2.16,0-2.53,0.58-2.53,2.92v5.3h11.94v-6c0-1.61-0.52-2.22-2.4-2.22h-0.58v-0.58
		h7.83v0.58c-1.83,0.06-2.31,0.61-2.31,2.5v12.64c0,2.16,0.61,2.65,2.44,2.65h0.3v0.58h-8.62v-0.58h0.94c1.98,0,2.4-0.7,2.4-2.28
		v-6.18H162.34z"/>
	<path class="st6" d="M194.97,85.6c-5.97,0-10.99-3.84-10.99-9.53c0-6.06,4.66-10.35,11.14-10.35c5.75,0,10.69,3.93,10.69,9.41
		C205.81,81.28,200.87,85.6,194.97,85.6z M194.33,66.48c-5.36,0-7.49,4.99-7.49,8.65c0,5.69,3.87,9.71,8.77,9.71
		c4.96,0,7.34-4.38,7.34-8.71C202.95,70.47,199.35,66.48,194.33,66.48z"/>
	<path class="st6" d="M222.38,85.6c-5.97,0-10.99-3.84-10.99-9.53c0-6.06,4.66-10.35,11.14-10.35c5.75,0,10.69,3.93,10.69,9.41
		C233.22,81.28,228.29,85.6,222.38,85.6z M221.74,66.48c-5.36,0-7.49,4.99-7.49,8.65c0,5.69,3.87,9.71,8.77,9.71
		c4.96,0,7.34-4.38,7.34-8.71C230.35,70.47,226.76,66.48,221.74,66.48z"/>
	<path class="st6" d="M251.01,85.12H237.4v-0.58h1c1.4,0,1.92-0.46,1.92-2.01V69.04c0-1.61-0.49-2.28-2.41-2.28h-0.43v-0.58h8.98
		v0.58h-1.13c-1.98,0-2.5,0.21-2.5,2.1v14.04c0,0.82,0.33,1.13,1.22,1.13h4.48c1.8,0,2.34-0.7,4.26-3.35h0.55L251.01,85.12z"/>
	<path class="st6" d="M279.46,85.6c-5.97,0-10.99-3.84-10.99-9.53c0-6.06,4.66-10.35,11.14-10.35c5.75,0,10.69,3.93,10.69,9.41
		C290.3,81.28,285.37,85.6,279.46,85.6z M278.83,66.48c-5.36,0-7.49,4.99-7.49,8.65c0,5.69,3.87,9.71,8.77,9.71
		c4.96,0,7.34-4.38,7.34-8.71C287.44,70.47,283.85,66.48,278.83,66.48z"/>
	<path class="st6" d="M308.28,77.84h-0.52c-0.06-1.77-0.7-2.31-2.16-2.31h-5.63v6.67c0,1.71,0.36,2.35,2.65,2.35v0.58h-7.4v-0.58
		c1.89-0.12,2.22-0.52,2.22-2.99V69.62c0-1.95-0.15-2.83-2.28-2.86v-0.58h13.64v3.59h-0.52c-0.03-1.77-0.64-2.5-2.53-2.5h-5.78v7.16
		H306c1.13,0,1.67-0.64,1.77-1.95h0.52V77.84z"/>
	<path class="st6" d="M326.97,69.41c0-1.74-0.21-2.65-2.34-2.65h-1.06v-0.58c0.85-0.03,2.95-0.15,3.84-0.18
		c1.67-0.06,3.99-0.09,4.57-0.09c2.68,0,5.02,0.4,6.12,1.19c1.25,0.88,1.86,1.92,1.86,3.38c0,1.74-1.43,3.35-3.47,3.72v0.06
		c2.86,0.85,4.54,2.71,4.54,5.08c0,2.41-1.67,5.78-6.58,5.78h-11.14v-0.58h0.7c2.5,0,2.98-0.58,2.98-2.5V69.41z M329.49,74.1h3.32
		c2.92,0,4.39-1.16,4.39-3.53c0-2.13-1.28-4.08-5.02-4.08c-0.67,0-1.92,0.06-2.68,0.09V74.1z M329.49,81.16
		c0,2.31,0.91,3.14,3.47,3.14c4.02,0,5.18-2.5,5.18-4.87c0-2.34-1.8-4.75-5.36-4.75h-3.29V81.16z"/>
	<path class="st6" d="M368.34,66.18v0.58c-2.04,0.03-2.77,0.85-2.77,2.8v8.22c0,3.77-2.41,7.82-9.01,7.82c-5.82,0-8.8-3.32-8.8-7.67
		v-8.89c0-1.95-0.55-2.25-2.62-2.28v-0.58h7.82v0.58h-0.27c-1.68,0-2.41,0.46-2.41,2.22v8.47c0,4.11,2.41,6.58,6.94,6.58
		c3.44,0,6.94-1.43,6.94-6.61v-7.09c0-2.92-0.46-3.44-2.98-3.56v-0.58H368.34z"/>
	<path class="st6" d="M373.06,80.49c0.64,2.71,2.77,4.29,5.15,4.29c2.04,0,4.2-1.19,4.2-3.59c0-4.39-9.77-5.73-9.77-11.05
		c0-2.53,2.31-4.42,5.42-4.42c2.56,0,3.07,0.76,4.14,0.76c0.24,0,0.36-0.06,0.55-0.3h0.49l0.52,3.87h-0.52
		c-0.85-2.19-2.8-3.59-4.9-3.59c-2.01,0-3.41,1.16-3.41,2.86c0,4.32,9.77,5.48,9.77,11.08c0,2.99-2.65,5.21-6.21,5.21
		c-1.67,0-3.81-0.82-4.23-0.82c-0.27,0-0.49,0.15-0.61,0.33h-0.52l-0.64-4.63H373.06z"/>
	<path class="st6" d="M396.93,85.12h-7.4v-0.58c1.89-0.09,2.28-0.58,2.28-2.62V68.95c0-1.65-0.58-2.1-2.28-2.19v-0.58h7.4v0.58
		c-1.92,0-2.59,0.43-2.59,2.47v12.91c0,1.8,0.49,2.41,2.59,2.41V85.12z"/>
	<path class="st6" d="M421.76,85.33l-15.77-16.5v13.06c0,2.19,0.49,2.65,3.07,2.65v0.58H402v-0.58h0.12c1.89,0,2.5-0.64,2.5-2.04
		V67.52c-0.7-0.49-1.49-0.73-2.56-0.76v-0.58h4.78l14.34,14.95V69.01c0-1.86-0.55-2.19-2.98-2.25v-0.58h7.12v0.58
		c-2.28,0-2.77,0.4-2.77,1.58v16.99H421.76z"/>
	<path class="st6" d="M443.33,78.27h-0.58c-0.24-2.16-0.82-2.41-2.07-2.41h-5.15v6.48c0,1.4,0.52,1.68,1.64,1.68h4.69
		c2.13,0,2.77-0.82,3.53-3.44h0.55l-0.49,4.54h-16.17v-0.58h0.85c2.44,0,2.86-0.67,2.86-2.5V69.19c0-1.71-0.4-2.44-2.44-2.44h-0.67
		v-0.58h14.61l0.25,4.23h-0.55c-0.4-2.59-1.16-3.14-2.25-3.14h-6.43v7.49h5.45c1.1,0,1.61-0.52,1.77-2.28h0.58V78.27z"/>
	<path class="st6" d="M451.97,80.49c0.64,2.71,2.77,4.29,5.15,4.29c2.04,0,4.2-1.19,4.2-3.59c0-4.39-9.77-5.73-9.77-11.05
		c0-2.53,2.31-4.42,5.42-4.42c2.56,0,3.07,0.76,4.14,0.76c0.24,0,0.36-0.06,0.55-0.3h0.49l0.52,3.87h-0.52
		c-0.85-2.19-2.8-3.59-4.9-3.59c-2.01,0-3.41,1.16-3.41,2.86c0,4.32,9.77,5.48,9.77,11.08c0,2.99-2.65,5.21-6.21,5.21
		c-1.67,0-3.81-0.82-4.23-0.82c-0.27,0-0.49,0.15-0.61,0.33h-0.52l-0.64-4.63H451.97z"/>
	<path class="st6" d="M469.56,80.49c0.64,2.71,2.77,4.29,5.15,4.29c2.04,0,4.2-1.19,4.2-3.59c0-4.39-9.77-5.73-9.77-11.05
		c0-2.53,2.31-4.42,5.42-4.42c2.56,0,3.07,0.76,4.14,0.76c0.24,0,0.36-0.06,0.55-0.3h0.49l0.52,3.87h-0.52
		c-0.85-2.19-2.8-3.59-4.9-3.59c-2.01,0-3.41,1.16-3.41,2.86c0,4.32,9.77,5.48,9.77,11.08c0,2.99-2.65,5.21-6.21,5.21
		c-1.67,0-3.81-0.82-4.23-0.82c-0.27,0-0.49,0.15-0.61,0.33h-0.52l-0.64-4.63H469.56z"/>
</g>
</svg>
